<svg version="1.0" xmlns="http://www.w3.org/2000/svg" width="800.000000" height="800.000000" viewBox="0 0 800.000000 800.000000" preserveAspectRatio="xMidYMid meet">
  <metadata>
    <rdf:RDF xmlns:rdf="http://www.w3.org/1999/02/22-rdf-syntax-ns#" xmlns:rdfs="http://www.w3.org/2000/01/rdf-schema#" xmlns:dc="http://purl.org/dc/elements/1.1/">
      <rdf:Description dc:format="image/svg+xml" dc:Label="1" dc:ContentProducer="001191330110MACRLGPT8B00000" dc:ProduceID="397201193" dc:ReservedCode1="iQEJayIbPSy5duidxQPi4S/wNEQlIafKG8l9sBQ2h5c=" dc:ContentPropagator="001191330110MACRLGPT8B00000" dc:PropagateID="397201193" dc:ReservedCode2="iQEJayIbPSy5duidxQPi4S/wNEQlIafKG8l9sBQ2h5c="/>
    </rdf:RDF>
  </metadata>
  <g transform="translate(182.942523,612.674656) scale(0.054235,-0.054235)" fill="#000000" stroke="none">
    <path d="M3645 7234 c-103 -52 -259 -125 -348 -161 -304 -122 -542 -206 -1542 -541 -944 -316 -1374 -477 -1472 -550 -35 -26 -73 -95 -73 -133 0 -51 45 -124 96 -156 43 -28 326 -168 594 -295 126 -60 996 -495 1199 -600 339 -175 668 -348 911 -478 135 -72 409 -213 610 -313 443 -220 405 -213 602 -114 73 36 207 105 298 152 91 48 230 121 310 162 292 152 356 186 425 223 39 21 129 68 200 105 72 37 157 82 190 100 33 18 119 63 190 100 72 37 162 85 200 105 39 21 144 76 235 123 310 159 806 420 1030 540 69 37 249 137 347 194 68 39 103 86 103 138 0 24 -3 51 -6 60 -13 32 -258 142 -574 257 -216 78 -372 131 -1055 360 -995 333 -1462 498 -1726 614 -31 13 -60 24 -64 24 -9 0 -217 92 -319 141 -124 60 -138 58 -361 -57z m281 -103 c25 -23 552 -242 859 -356 335 -125 484 -177 1170 -409 828 -279 923 -312 1150 -394 258 -94 335 -125 335 -133 0 -3 -33 -20 -72 -37 -261 -109 -1441 -700 -2063 -1032 -270 -144 -736 -404 -970 -541 -49 -28 -121 -70 -160 -92 -38 -22 -89 -53 -112 -68 -23 -16 -48 -29 -55 -29 -17 0 -122 54 -248 128 -52 31 -142 83 -200 117 -183 107 -509 290 -695 390 -331 177 -1089 549 -1470 720 -750 337 -914 414 -932 437 -38 46 186 133 1407 543 765 257 933 315 1175 405 379 140 482 184 735 315 83 43 126 54 146 36z"/>
    <path d="M3887 6912 c-23 -26 -21 -70 5 -108 24 -35 64 -62 74 -51 4 4 9 28 11 54 7 87 -48 152 -90 105z"/>
    <path d="M3808 6783 c-22 -5 -23 -22 -2 -51 23 -33 54 -29 54 8 0 31 -22 49 -52 43z"/>
    <path d="M6320 6025 c0 -3 44 -27 98 -55 53 -27 132 -70 175 -94 69 -38 75 -44 55 -50 l-23 -7 25 -11 25 -12 -27 -4 c-27 -3 -37 -17 -19 -24 5 -1 12 -22 16 -44 6 -37 3 -45 -25 -78 -43 -49 -23 -47 93 6 160 74 248 133 233 157 -4 5 -52 28 -109 50 -56 22 -129 52 -162 65 -88 36 -355 112 -355 101z m397 -221 c-3 -3 -12 -4 -19 -1 -8 3 -5 6 6 6 11 1 17 -2 13 -5z m-27 -48 c0 -2 3 -11 6 -20 9 -23 -9 -20 -24 4 -10 17 -10 20 3 20 8 0 15 -2 15 -4z"/>
    <path d="M1330 6000 c-167 -41 -420 -127 -447 -154 -34 -32 45 -80 281 -171 113 -43 154 -51 111 -19 -48 35 -116 108 -111 119 2 7 2 16 -2 19 -10 11 -11 36 -1 36 5 0 9 6 9 14 0 8 6 17 13 19 7 3 5 6 -5 6 -24 1 -23 18 2 26 45 14 263 124 245 123 -11 0 -54 -9 -95 -18z"/>
    <path d="M3998 4353 c-5 -164 -3 -193 11 -193 4 0 52 42 106 92 98 93 98 93 68 99 -16 3 -46 5 -66 5 -20 -1 -37 2 -37 7 0 12 -68 157 -73 157 -3 0 -7 -75 -9 -167z"/>
    <path d="M4241 4449 c-13 -5 -35 -17 -50 -28 -14 -10 -38 -21 -53 -25 -16 -3 -28 -11 -28 -16 0 -14 13 -13 28 2 9 9 12 9 12 -1 0 -21 47 -5 96 33 52 40 50 57 -5 35z"/>
    <path d="M292 4435 c-65 -20 -111 -61 -139 -123 -48 -104 -17 -236 73 -310 20 -17 97 -57 173 -90 75 -34 219 -101 321 -150 102 -49 282 -136 400 -192 742 -355 2758 -1357 2795 -1390 36 -32 63 -40 128 -40 61 0 72 4 278 108 118 60 453 233 744 384 292 151 598 309 680 351 83 41 247 125 365 186 118 61 539 272 936 470 771 385 769 384 810 478 57 131 -24 289 -166 323 -97 23 -127 11 -715 -285 -297 -150 -596 -302 -665 -337 -69 -36 -215 -111 -325 -168 -110 -56 -263 -135 -340 -175 -77 -40 -230 -119 -340 -175 -110 -56 -231 -119 -270 -140 -38 -20 -169 -88 -290 -150 -121 -62 -287 -149 -370 -192 -322 -170 -348 -181 -399 -174 -26 4 -75 22 -109 40 -34 18 -134 70 -222 116 -221 115 -359 187 -430 225 -33 18 -145 76 -250 130 -104 54 -244 126 -310 160 -66 35 -235 121 -375 193 -445 226 -731 372 -885 452 -896 463 -954 491 -1029 489 -17 0 -50 -6 -74 -14z m7367 -129 c57 -30 79 -105 39 -130 -13 -8 -32 -5 -75 9 -47 16 -81 20 -176 18 -65 -1 -116 1 -113 6 3 4 54 20 113 36 75 20 115 36 130 52 26 27 43 29 82 9z"/>
    <path d="M320 2831 c-50 -16 -88 -41 -127 -85 -68 -77 -81 -166 -37 -254 14 -28 40 -64 57 -78 27 -23 236 -129 502 -254 99 -47 1551 -772 1725 -862 80 -41 249 -128 375 -193 127 -65 271 -139 320 -165 50 -26 185 -96 300 -155 116 -59 215 -111 220 -115 6 -4 74 -40 152 -79 169 -85 208 -93 303 -61 54 18 459 219 695 345 33 18 177 92 320 165 143 73 283 145 310 160 28 15 181 94 340 175 160 81 295 151 300 155 6 4 145 76 310 160 165 84 381 194 480 245 99 51 342 175 540 275 396 201 422 220 450 312 20 67 19 86 -5 151 -40 105 -122 162 -236 162 -72 0 -73 -1 -295 -112 -123 -62 -296 -150 -384 -196 -88 -46 -232 -121 -320 -166 -88 -46 -191 -100 -230 -121 -38 -21 -160 -84 -270 -140 -110 -56 -240 -124 -290 -150 -49 -26 -139 -73 -200 -105 -359 -187 -633 -331 -810 -425 -38 -20 -117 -62 -175 -92 -58 -31 -132 -70 -165 -88 -195 -104 -405 -209 -438 -220 -29 -9 -49 -9 -83 -1 -68 17 -336 152 -679 341 -170 95 -346 191 -390 214 -270 145 -723 385 -860 456 -255 132 -389 202 -400 210 -5 4 -181 94 -390 200 -209 106 -448 228 -531 270 -244 125 -306 144 -384 121z m7377 -278 c7 -21 -32 -34 -53 -18 -17 13 -17 16 -4 25 19 13 52 9 57 -7z"/>
  </g>
</svg>